<svg width="43" height="44" viewBox="0 0 43 44" fill="none" xmlns="http://www.w3.org/2000/svg">
<rect x="-0.000488281" y="0.499756" width="43" height="43" rx="21.5" fill="#F1F1F9"/>
<mask id="mask0_1_14835" style="mask-type:luminance" maskUnits="userSpaceOnUse" x="-1" y="-1" width="45" height="45">
<rect x="-0.000488281" y="0.499756" width="43" height="43" rx="21.5" fill="white" stroke="white"/>
</mask>
<g mask="url(#mask0_1_14835)">
<path d="M24.6948 12.3659C24.5319 12.3024 24.3544 12.2863 24.1827 12.3195C24.0111 12.3526 23.8523 12.4337 23.7248 12.5533L14.9064 21.3717C14.7408 21.5389 14.6479 21.7647 14.6479 22C14.6479 22.2353 14.7408 22.4611 14.9064 22.6283L23.7248 31.4467C23.8941 31.6085 24.1189 31.6992 24.3531 31.7002C24.4701 31.6997 24.586 31.6772 24.6948 31.6341C24.8553 31.5666 24.9922 31.4531 25.0884 31.308C25.1845 31.1628 25.2355 30.9925 25.2349 30.8184V13.1816C25.2355 13.0075 25.1845 12.8372 25.0884 12.692C24.9922 12.5469 24.8553 12.4334 24.6948 12.3659Z" fill="#0D3875"/>
</g>
</svg>
